:SAMPLES-PER-SECOND 24
:FULLY-SPECIFIED
:DEGREES
298
root  -7.29007 40.9881 30.4047 -127.459 41.0746 -118.829
RightUpLeg  -49.4802 -4.11969 -40.2878
RightLeg  41.5536 -3.76604 -3.85447
RightFoot  -20.6575 0.607804 9.16529
RightToes  -2.08645e-008 3.77894e-005 6.81332e-007
Spine  25.2218 -0.517615 7.62255
Spine1  -9.89238 -1.2006 29.5004
HEad  -45.4425 -53.1802 33.9733
LeftShoulder1  3.08642 -10.014 -16.0883
LeftArm  9.18068 -33.4178 -38.6034
LeftForeArm  103.785 -80.7473 -84.6387
LeftHand  -0.936805 -2.33923 14.2457
RightShoulder  1.80281 5.03257 14.2739
RightArm  31.472 21.6623 16.9886
RightForeArm  123.935 80.6234 103.135
RightHand  -0.0562067 10.3865 -0.826237
LeftUpLeg  -8.57434 13.099 30.2683
LeftLeg  23.672 26.8492 12.5211
LeftFoot  -11.4992 0.0612197 -5.50664
LeftToes  1.24767e-006 1.47042e-008 1.32732e-009
299
root  -7.04777 42.0664 28.7665 -119.162 44.6559 -110.57
RightUpLeg  -45.0618 -9.09247 -48.8174
RightLeg  42.0479 -9.55163 -9.39764
RightFoot  -18.123 0.148795 4.55569
RightToes  -2.08645e-008 3.77894e-005 6.81332e-007
Spine  23.7514 -0.430306 16.7495
Spine1  -9.75426 1.09775 22.6969
HEad  -47.2819 -56.0061 38.7879
LeftShoulder1  3.02877 -10.1455 -15.3863
LeftArm  9.82492 -18.0745 -25.0774
LeftForeArm  108.992 -80.5175 -95.1255
LeftHand  -0.807055 -2.16074 12.5898
RightShoulder  1.34787 3.9427 10.9423
RightArm  27.5257 25.7801 13.9183
RightForeArm  131.961 79.5945 116.183
RightHand  0.163054 10.443 0.777074
LeftUpLeg  -6.30799 20.3859 31.1254
LeftLeg  25.1299 22.7666 11.4744
LeftFoot  -1.79425 0.701282 -8.23827
LeftToes  1.24767e-006 1.47042e-008 1.32732e-009
300
root  -6.64227 42.7597 27.4951 -109.831 46.3615 -101.384
RightUpLeg  -40.8848 -13.0212 -55.652
RightLeg  43.3536 -13.4354 -13.4886
RightFoot  -16.3562 -0.15834 -1.09526
RightToes  -2.08645e-008 3.77894e-005 6.81332e-007
Spine  24.2251 -0.242841 23.8029
Spine1  -10.2835 3.28923 18.0181
HEad  -48.5098 -56.633 43.1529
LeftShoulder1  2.95394 -9.92956 -15.1671
LeftArm  14.7279 -0.134163 -13.562
LeftForeArm  102.695 -80.3761 -92.4718
LeftHand  -0.688473 -2.66429 10.1548
RightShoulder  1.05492 2.7726 9.49969
RightArm  21.244 30.9131 10.3024
RightForeArm  133.846 78.7752 122.155
RightHand  0.243041 10.2918 1.37668
LeftUpLeg  -6.73194 22.6356 33.7276
LeftLeg  29.932 17.5225 10.9153
LeftFoot  6.27022 1.26498 -8.49454
LeftToes  1.24767e-006 1.47042e-008 1.32732e-009
301
root  -6.04865 43.031 26.341 -97.4902 47.237 -89.8828
RightUpLeg  -38.9769 -16.8151 -59.5808
RightLeg  43.2082 -15.0057 -14.8591
RightFoot  -15.7608 -0.272456 -4.28147
RightToes  -2.08645e-008 3.77894e-005 6.81332e-007
Spine  24.3208 0.733793 26.5519
Spine1  -9.16128 4.84563 16.702
HEad  -47.0231 -55.6883 43.8658
LeftShoulder1  3.02568 -9.67642 -16.2289
LeftArm  20.6235 20.3443 -2.62944
LeftForeArm  89.4268 -80.1695 -82.0756
LeftHand  -0.642507 -3.25976 8.86334
RightShoulder  0.783068 1.55156 7.98939
RightArm  14.1344 36.3766 9.32074
RightForeArm  130.411 78.984 119.761
RightHand  0.0827647 9.98363 0.215392
LeftUpLeg  -4.70581 16.6399 35.678
LeftLeg  26.7524 14.6727 8.26056
LeftFoot  2.96134 0.758504 -6.0829
LeftToes  1.24767e-006 1.47042e-008 1.32732e-009
302
root  -5.28444 42.9224 25.2378 -81.644 46.365 -75.9124
RightUpLeg  -40.4739 -20.0918 -59.2732
RightLeg  42.3312 -15.3277 -14.7175
RightFoot  -15.5353 -0.266872 -4.41978
RightToes  -2.08645e-008 3.77894e-005 6.81332e-007
Spine  22.7647 2.49143 26.7562
Spine1  -5.94039 6.0247 16.0645
HEad  -43.0076 -53.8624 41.0078
LeftShoulder1  3.40639 -10.1201 -18.4441
LeftArm  24.8113 40.7163 6.56055
LeftForeArm  64.1406 -78.5527 -59.3467
LeftHand  -0.681905 -2.93449 9.7371
RightShoulder  0.647815 0.780154 7.60461
RightArm  6.89212 40.6086 9.48817
RightForeArm  124.687 79.3052 115.594
RightHand  0.0161101 9.15354 -0.268075
LeftUpLeg  -2.24181 -0.11357 34.8561
LeftLeg  19.9317 16.9321 6.98706
LeftFoot  0.0956788 0.688687 -6.87977
LeftToes  1.24767e-006 1.47042e-008 1.32732e-009
303
root  -4.49871 42.1251 24.3369 -65.9453 42.436 -62.8357
RightUpLeg  -43.647 -21.9249 -55.3227
RightLeg  40.9893 -15.4768 -14.2006
RightFoot  -14.9438 -0.214355 -3.60819
RightToes  -2.08645e-008 3.77894e-005 6.81332e-007
Spine  19.2792 3.85347 27.1997
Spine1  -1.09317 6.62453 13.9313
HEad  -37.9245 -50.6642 35.9183
LeftShoulder1  4.1092 -11.2161 -21.5646
LeftArm  25.4055 57.5846 11.8742
LeftForeArm  42.0136 -74.5336 -39.4964
LeftHand  -0.824492 -2.39849 12.4855
RightShoulder  0.735908 0.866758 9.5266
RightArm  0.42601 44.0905 8.33626
RightForeArm  115.736 79.5878 109.742
RightHand  -0.147613 8.01446 -1.64862
LeftUpLeg  -3.77727 -13.064 34.3053
LeftLeg  20.3747 9.58186 4.15213
LeftFoot  1.66978 0.97337 -8.67761
LeftToes  1.24767e-006 1.47042e-008 1.32732e-009
304
root  -3.83189 41.0201 23.4601 -54.0047 36.777 -52.8471
RightUpLeg  -45.6322 -21.1433 -49.5928
RightLeg  38.3874 -16.1497 -13.5324
RightFoot  -15.0863 -0.203981 -3.12231
RightToes  -2.08645e-008 3.77894e-005 6.81332e-007
Spine  17.9422 3.66679 28.5343
Spine1  2.10996 6.97607 9.31512
HEad  -32.5429 -45.7567 28.9993
LeftShoulder1  4.95381 -12.1301 -25.5272
LeftArm  23.2006 68.592 10.2932
LeftForeArm  32.7428 -71.8213 -32.8972
LeftHand  -0.906785 -1.51257 15.4051
RightShoulder  0.923786 1.18137 12.7861
RightArm  -3.31175 47.2426 6.69835
RightForeArm  113.214 79.5677 108.825
RightHand  -0.406799 7.67455 -3.96865
LeftUpLeg  -5.02855 -10.4689 33.4149
LeftLeg  23.271 1.88491 1.25632
LeftFoot  1.35833 0.419782 -3.7933
LeftToes  1.24767e-006 1.47042e-008 1.32732e-009
305
root  -3.33999 40.1091 22.5005 -45.3788 31.0625 -44.8379
RightUpLeg  -44.9332 -16.1702 -44.4048
RightLeg  34.8663 -17.3882 -12.8379
RightFoot  -15.302 -0.208703 -3.04888
RightToes  -2.08645e-008 3.77894e-005 6.81332e-007
Spine  18.7192 3.16615 28.1537
Spine1  4.24978 7.1634 5.81587
HEad  -30.3384 -39.4085 22.7686
LeftShoulder1  5.92764 -12.5852 -30.8272
LeftArm  9.59247 68.228 -9.07719
LeftForeArm  25.951 -69.0565 -28.0891
LeftHand  -0.977776 -1.07246 17.6477
RightShoulder  1.25922 1.98502 16.3603
RightArm  -4.01814 48.3678 5.68493
RightForeArm  121.705 78.9884 116.698
RightHand  -0.259701 7.96572 -2.62267
LeftUpLeg  -3.08193 -4.13207 29.9279
LeftLeg  23.8297 9.26148 4.76133
LeftFoot  -3.62493 -0.195904 3.52561
LeftToes  1.24767e-006 1.47042e-008 1.32732e-009
306
root  -3.0132 39.556 21.6338 -38.174 26.3892 -38.4129
RightUpLeg  -41.8167 -7.83668 -40.6022
RightLeg  31.2025 -18.7328 -12.0635
RightFoot  -14.8916 -0.171097 -2.27231
RightToes  -2.08645e-008 3.77894e-005 6.81332e-007
Spine  19.0433 2.8908 26.1169
Spine1  5.28331 7.19671 2.91347
HEad  -30.5106 -32.8954 20.2301
LeftShoulder1  6.65441 -12.7501 -34.9198
LeftArm  3.40587 52.8559 -24.6434
LeftForeArm  19.6266 -62.6047 -20.3266
LeftHand  -1.14361 -1.5889 19.098
RightShoulder  2.09425 3.99384 21.6808
RightArm  0.962617 43.5222 8.17351
RightForeArm  129.018 78.5021 122.18
RightHand  -0.185555 8.67443 -1.915
LeftUpLeg  -3.58966 -0.232558 26.1307
LeftLeg  24.9538 16.0918 8.33392
LeftFoot  -6.19402 -0.276574 6.97404
LeftToes  1.24767e-006 1.47042e-008 1.32732e-009
307
root  -2.82389 39.4767 20.8824 -32.0663 24.4295 -34.3094
RightUpLeg  -35.2793 -0.285304 -36.2173
RightLeg  25.6046 -20.8468 -10.6714
RightFoot  -15.0039 -0.133145 -0.997383
RightToes  -2.08645e-008 3.77894e-005 6.81332e-007
Spine  16.8895 3.1403 21.931
Spine1  5.66218 6.25775 2.28142
HEad  -29.6061 -27.865 19.4761
LeftShoulder1  7.51507 -13.4063 -38.3273
LeftArm  7.83547 30.1794 -27.6742
LeftForeArm  17.576 -54.3947 -14.2931
LeftHand  -1.33692 -2.11153 20.7218
RightShoulder  3.16882 5.81023 28.0964
RightArm  9.30907 30.9333 12.7357
RightForeArm  120.795 79.5318 112.07
RightHand  -0.470503 8.28667 -4.36177
LeftUpLeg  -6.71926 3.0314 22.9283
LeftLeg  24.5548 16.0668 8.17892
LeftFoot  -3.88031 -0.445097 7.20065
LeftToes  1.24767e-006 1.47042e-008 1.32732e-009
308
root  -2.76479 39.6358 20.2034 -26.3829 25.3307 -31.5787
RightUpLeg  -26.043 2.45689 -29.4872
RightLeg  17.3518 -22.2143 -8.26601
RightFoot  -14.9014 -0.0982129 0.0803865
RightToes  -2.08645e-008 3.77894e-005 6.81332e-007
Spine  12.6801 3.12838 14.8549
Spine1  5.80981 3.76995 4.84813
HEad  -27.6001 -23.9051 17.8241
LeftShoulder1  7.62917 -13.5982 -38.4972
LeftArm  9.93261 10.2289 -29.9843
LeftForeArm  17.3561 -49.6317 -11.8158
LeftHand  -1.58395 -2.57362 23.0768
RightShoulder  3.99262 6.6927 33.2737
RightArm  13.8641 14.1975 16.0486
RightForeArm  94.5466 80.2763 85.7706
RightHand  -0.405305 7.82057 -3.92191
LeftUpLeg  -9.62928 6.10882 18.916
LeftLeg  19.9613 16.7098 7.14549
LeftFoot  -2.68864 -0.434509 5.92412
LeftToes  1.24767e-006 1.47042e-008 1.32732e-009
309
root  -2.787 39.7436 19.4876 -18.9247 25.7468 -27.4948
RightUpLeg  -20.5834 -1.05084 -21.0989
RightLeg  14.034 -17.6389 -6.05442
RightFoot  -14.2165 -0.0316857 2.57498
RightToes  -2.08645e-008 3.77894e-005 6.81332e-007
Spine  7.22442 3.07796 4.60435
Spine1  5.94795 0.60562 12.0444
HEad  -26.6235 -19.8762 14.9608
LeftShoulder1  6.6321 -12.7737 -34.7354
LeftArm  7.56249 -1.12433 -33.5098
LeftForeArm  18.6818 -54.1213 -13.8605
LeftHand  -1.50853 -2.15227 23.2
RightShoulder  4.56618 7.2111 36.6764
RightArm  14.5599 -3.4522 15.4246
RightForeArm  90.5991 80.1937 83.049
RightHand  -0.540772 7.23674 -5.32015
LeftUpLeg  -12.737 8.9544 13.7449
LeftLeg  13.218 17.6507 5.05812
LeftFoot  -2.21512 -0.323173 4.21001
LeftToes  1.24767e-006 1.47042e-008 1.32732e-009
310
root  -2.84466 39.7544 18.7484 -11.3061 23.128 -21.7382
RightUpLeg  -17.5605 -5.83236 -12.9421
RightLeg  17.958 -12.2245 -4.59077
RightFoot  -13.4454 0.0208022 6.09804
RightToes  -2.08645e-008 3.77894e-005 6.81332e-007
Spine  3.07447 2.21489 -4.40651
Spine1  5.52869 -1.90081 17.6978
HEad  -26.4 -15.1535 12.2878
LeftShoulder1  5.04363 -10.9613 -28.8291
LeftArm  4.63352 -3.83537 -34.2876
LeftForeArm  29.353 -67.3199 -24.745
LeftHand  -1.1009 -0.454772 21.8403
RightShoulder  4.67715 7.34849 37.1478
RightArm  16.2601 -20.6605 13.5306
RightForeArm  110.861 79.9733 103.538
RightHand  -0.450399 7.42515 -4.43311
LeftUpLeg  -14.5421 7.81417 9.68203
LeftLeg  6.56241 23.3204 1.63455
LeftFoot  -0.216337 -0.261527 2.69802
LeftToes  1.24767e-006 1.47042e-008 1.32732e-009
311
root  -2.9057 39.548 18.0045 -6.38171 17.888 -16.4224
RightUpLeg  -11.2536 -10.8053 -5.73522
RightLeg  22.8006 -8.83449 -4.26594
RightFoot  -12.1749 -0.0232332 8.217
RightToes  -2.08645e-008 3.77894e-005 6.81332e-007
Spine  1.14679 0.618627 -8.06126
Spine1  5.28938 -3.3227 16.9517
HEad  -25.7362 -9.91843 9.66262
LeftShoulder1  4.01927 -9.50274 -24.749
LeftArm  2.55047 -0.535097 -29.2781
LeftForeArm  82.7852 -79.7483 -77.9774
LeftHand  -0.606801 2.07785 21.1332
RightShoulder  4.36562 7.14983 35.0713
RightArm  19.9462 -34.89 11.5244
RightForeArm  124.879 79.1177 117.006
RightHand  -1.27578 8.28097 -11.109
LeftUpLeg  -14.7875 6.91164 6.86237
LeftLeg  1.33722 31.3159 -1.71486
LeftFoot  0.364526 -0.15805 1.53272
LeftToes  1.24767e-006 1.47042e-008 1.32732e-009
312
root  -2.9671 39.2578 17.1511 -1.65607 10.5479 -11.7317
RightUpLeg  -5.54354 -13.9095 -1.48242
RightLeg  29.389 -6.01714 -3.85674
RightFoot  -12.0448 -0.019022 10.2422
RightToes  -2.08645e-008 3.77894e-005 6.81332e-007
Spine  -2.39013 -0.608308 -9.17785
Spine1  6.11277 -3.85775 14.4075
HEad  -24.8975 -4.76171 7.19849
LeftShoulder1  3.71485 -8.99891 -23.4784
LeftArm  1.41918 7.29884 -22.7449
LeftForeArm  152.162 -71.7224 -148.132
LeftHand  -0.366943 3.29078 19.9871
RightShoulder  3.98436 6.8791 32.4877
RightArm  24.828 -44.0343 6.99882
RightForeArm  131.069 78.3925 123.427
RightHand  -0.362796 8.5169 -3.45075
LeftUpLeg  -16.4507 6.28748 4.87053
LeftLeg  -3.47941 38.3808 -5.75831
LeftFoot  2.1784 -0.327357 2.63412
LeftToes  1.24767e-006 1.47042e-008 1.32732e-009
